<svg width="25" height="24" viewBox="0 0 25 24" fill="none" xmlns="http://www.w3.org/2000/svg">
<path fill-rule="evenodd" clip-rule="evenodd" d="M8.47705 19H4.75177C4.01297 19 3.41406 18.4011 3.41406 17.6623V16.7893C3.41406 16.2839 3.61483 15.7992 3.9722 15.4419C4.89541 14.5187 5.41406 13.2665 5.41406 11.9609V9C5.41406 5.13401 8.54807 2 12.4141 2C16.2801 2 19.4141 5.13401 19.4141 9V11.9609C19.4141 13.2665 19.9328 14.5187 20.856 15.4419C21.2133 15.7992 21.4141 16.2839 21.4141 16.7893V17.6623C21.4141 18.4011 20.8152 19 20.0764 19H16.3511C16.3511 19.3646 16.3436 20.1575 15.9189 20.9285C15.2411 22.159 13.9272 23 12.4141 23C10.901 23 9.58703 22.159 8.90921 20.9285C8.48452 20.1575 8.47705 19.3646 8.47705 19ZM17.4141 11.9609C17.4141 13.7839 18.1331 15.5327 19.4141 16.8283V17H5.41406V16.8283C6.69505 15.5327 7.41406 13.7839 7.41406 11.9609V9C7.41406 6.23858 9.65264 4 12.4141 4C15.1755 4 17.4141 6.23858 17.4141 9V11.9609ZM14.3511 19H10.4771C10.4771 19.332 10.5009 19.6728 10.6611 19.9636C11.0004 20.5796 11.655 20.9975 12.4074 21H12.4141H12.4207C13.1732 20.9975 13.8278 20.5796 14.1671 19.9636C14.3273 19.6728 14.3511 19.332 14.3511 19Z" fill="#0E1114"/>
</svg>
