<svg width="17" height="14" viewBox="0 0 17 14" fill="none" xmlns="http://www.w3.org/2000/svg">
<path d="M13.9461 7.05268C13.8368 6.66201 13.7134 6.24868 13.5761 5.80401C13.1694 4.68282 12.8947 3.51809 12.7574 2.33334C12.7574 2.15653 12.8277 1.98696 12.9527 1.86194C13.0777 1.73691 13.2473 1.66668 13.4241 1.66668C13.6009 1.66668 13.7705 1.73691 13.8955 1.86194C14.0205 1.98696 14.0908 2.15653 14.0908 2.33334C14.0908 2.51015 14.161 2.67972 14.286 2.80475C14.411 2.92977 14.5806 3.00001 14.7574 3.00001C14.9342 3.00001 15.1038 2.92977 15.2288 2.80475C15.3539 2.67972 15.4241 2.51015 15.4241 2.33334C15.4241 1.80291 15.2134 1.2942 14.8383 0.91913C14.4632 0.544057 13.9545 0.333344 13.4241 0.333344C12.8937 0.333344 12.3849 0.544057 12.0099 0.91913C11.6348 1.2942 11.4241 1.80291 11.4241 2.33334C11.4406 2.84241 11.5119 3.34821 11.6368 3.84201L8.43675 6.33334L4.73809 3.66668H6.75742C6.93423 3.66668 7.1038 3.59644 7.22883 3.47141C7.35385 3.34639 7.42409 3.17682 7.42409 3.00001C7.42409 2.8232 7.35385 2.65363 7.22883 2.52861C7.1038 2.40358 6.93423 2.33334 6.75742 2.33334H4.73809C4.46113 2.33326 4.19124 2.42078 3.96704 2.58337C3.74284 2.74597 3.57581 2.97532 3.48985 3.23859C3.40389 3.50187 3.40341 3.7856 3.48847 4.04917C3.57353 4.31274 3.73977 4.54265 3.96342 4.70601L7.34409 7.18068L6.38542 7.92668C5.78995 7.36603 5.00763 7.04628 4.18993 7.02932C3.37224 7.01236 2.57733 7.29941 1.95913 7.83489C1.34093 8.37037 0.9434 9.11619 0.843517 9.92794C0.743634 10.7397 0.9485 11.5596 1.41845 12.229C1.8884 12.8984 2.59 13.3696 3.38742 13.5513C4.18483 13.7331 5.02133 13.6125 5.73496 13.213C6.44858 12.8134 6.98857 12.1633 7.25036 11.3884C7.51216 10.6136 7.47714 9.76918 7.15209 9.01868L12.0114 5.23934C12.1054 5.55668 12.4961 6.82868 12.5821 7.12134C11.7852 7.3294 11.0938 7.82542 10.6413 8.51356C10.1888 9.2017 10.0075 10.0331 10.1323 10.8472C10.2571 11.6612 10.6792 12.4002 11.317 12.9212C11.9548 13.4422 12.7631 13.7083 13.5857 13.6681C14.4083 13.6278 15.1868 13.2842 15.7708 12.7035C16.3547 12.1228 16.7028 11.3462 16.7476 10.5238C16.7924 9.7015 16.5308 8.89173 16.0134 8.25099C15.496 7.61025 14.7594 7.18403 13.9461 7.05468V7.05268Z" fill="#0E1114"/>
</svg>
