<svg width="25" height="24" viewBox="0 0 25 24" fill="none" xmlns="http://www.w3.org/2000/svg">
<g clip-path="url(#clip0_8_1623)">
<path d="M23.1271 4.077C22.8458 3.73944 22.4936 3.46795 22.0956 3.28182C21.6976 3.09568 21.2635 2.99946 20.8241 3H4.65606L4.61406 2.649C4.52811 1.91942 4.17745 1.24673 3.62855 0.758478C3.07966 0.270223 2.37069 0.000341793 1.63606 0L1.41406 0C1.14885 0 0.894492 0.105357 0.706956 0.292893C0.519419 0.48043 0.414063 0.734784 0.414062 1C0.414063 1.26522 0.519419 1.51957 0.706956 1.70711C0.894492 1.89464 1.14885 2 1.41406 2H1.63606C1.881 2.00003 2.1174 2.08996 2.30043 2.25272C2.48347 2.41547 2.60041 2.63975 2.62906 2.883L4.00506 14.583C4.14791 15.7998 4.73254 16.9218 5.64797 17.736C6.5634 18.5502 7.74592 19 8.97106 19H19.4141C19.6793 19 19.9336 18.8946 20.1212 18.7071C20.3087 18.5196 20.4141 18.2652 20.4141 18C20.4141 17.7348 20.3087 17.4804 20.1212 17.2929C19.9336 17.1054 19.6793 17 19.4141 17H8.97106C8.35212 16.9983 7.74886 16.8051 7.244 16.4471C6.73913 16.089 6.35738 15.5835 6.15106 15H18.0711C19.2434 15.0001 20.3784 14.5882 21.2779 13.8364C22.1774 13.0846 22.7841 12.0407 22.9921 10.887L23.7771 6.533C23.8554 6.10101 23.8378 5.65707 23.7255 5.23264C23.6132 4.80821 23.4089 4.41368 23.1271 4.077ZM21.8141 6.178L21.0281 10.532C20.9032 11.225 20.5385 11.852 19.9979 12.3032C19.4573 12.7544 18.7752 13.0011 18.0711 13H5.83306L4.89206 5H20.8241C20.971 4.99912 21.1163 5.03062 21.2496 5.09226C21.3829 5.15389 21.5011 5.24415 21.5956 5.35661C21.6901 5.46907 21.7587 5.60097 21.7964 5.74294C21.8342 5.8849 21.8402 6.03344 21.8141 6.178Z" fill="#0E1114"/>
<path d="M7.41406 24C8.51863 24 9.41406 23.1046 9.41406 22C9.41406 20.8954 8.51863 20 7.41406 20C6.30949 20 5.41406 20.8954 5.41406 22C5.41406 23.1046 6.30949 24 7.41406 24Z" fill="#0E1114"/>
<path d="M17.4141 24C18.5186 24 19.4141 23.1046 19.4141 22C19.4141 20.8954 18.5186 20 17.4141 20C16.3095 20 15.4141 20.8954 15.4141 22C15.4141 23.1046 16.3095 24 17.4141 24Z" fill="#0E1114"/>
</g>
<defs>
<clipPath id="clip0_8_1623">
<rect width="24" height="24" fill="white" transform="translate(0.414062)"/>
</clipPath>
</defs>
</svg>
