<svg width="14" height="22" viewBox="0 0 14 22" fill="none" xmlns="http://www.w3.org/2000/svg">
<path d="M0.128082 20.2933C0.128082 19.3507 3.01516 18.5866 6.57662 18.5866C10.1381 18.5866 13.0252 19.3481 13.0252 20.2933C13.0252 21.2385 10.1372 22 6.57662 22C3.016 22 0.128082 21.2385 0.128082 20.2933Z" fill="#D7D7D7"/>
<path d="M7.33478 7.58662H5.81763V19.7238C5.8344 19.9135 5.92158 20.0899 6.06198 20.2185C6.20239 20.347 6.38585 20.4183 6.5762 20.4183C6.76656 20.4183 6.95002 20.347 7.09042 20.2185C7.23083 20.0899 7.31801 19.9135 7.33478 19.7238V7.58662Z" fill="#141414"/>
<path d="M2.02432 4.55146C2.02432 5.45162 2.29124 6.33156 2.79132 7.08003C3.29141 7.82849 4.0022 8.41187 4.83382 8.75638C5.66544 9.10089 6.58054 9.19108 7.46342 9.01553C8.34629 8.83998 9.15729 8.40658 9.79385 7.77013C10.4304 7.13368 10.864 6.32277 11.0397 5.43992C11.2154 4.55708 11.1254 3.64196 10.781 2.81028C10.4367 1.97859 9.85343 1.26769 9.10505 0.767471C8.35668 0.267248 7.47679 0.000167425 6.57663 7.86607e-08C5.97885 -0.000111053 5.38691 0.117534 4.8346 0.346216C4.28229 0.574899 3.78045 0.910139 3.35771 1.33279C2.93498 1.75545 2.59965 2.25723 2.37086 2.8095C2.14208 3.36176 2.02432 3.95368 2.02432 4.55146Z" fill="#02AFA7"/>
<path d="M3.54147 4.55146C3.54147 5.15156 3.71941 5.73818 4.05279 6.23715C4.38616 6.73612 4.86001 7.12503 5.41441 7.35472C5.9688 7.5844 6.57886 7.64454 7.16743 7.52753C7.75601 7.41052 8.29667 7.12161 8.72106 6.69734C9.14545 6.27307 9.43451 5.73249 9.55168 5.14395C9.66886 4.5554 9.60889 3.94533 9.37936 3.39087C9.14983 2.83641 8.76104 2.36246 8.26217 2.02894C7.76329 1.69542 7.17672 1.51732 6.57663 1.51715C6.17808 1.51704 5.78342 1.59545 5.41519 1.74788C5.04695 1.90032 4.71235 2.12381 4.4305 2.40558C4.14865 2.68736 3.92507 3.02189 3.77253 3.39009C3.61999 3.75828 3.54147 4.15292 3.54147 4.55146Z" fill="#02F0E5"/>
</svg>
