<svg width="17" height="15" viewBox="0 0 17 15" fill="none" xmlns="http://www.w3.org/2000/svg">
<path d="M15.1486 2.18323C14.7506 1.7495 14.2661 1.40401 13.7264 1.16905C13.1866 0.934087 12.6036 0.814867 12.015 0.819078C11.1223 0.815466 10.2548 1.11508 9.55454 1.66886C9.17462 1.96586 8.83934 2.3159 8.55898 2.70826C8.27865 2.31588 7.94337 1.96583 7.56343 1.66886C6.86326 1.115 5.99573 0.815372 5.10298 0.819078C4.51433 0.814867 3.93134 0.934087 3.3916 1.16905C2.85186 1.40401 2.36736 1.7495 1.96935 2.18323C1.14968 3.10188 0.706202 4.29563 0.727281 5.52663C0.763406 6.94545 1.31586 8.30237 2.28106 9.34293C3.47704 10.6623 4.77745 11.883 6.16965 12.9933C6.70891 13.452 7.31928 13.9734 7.95335 14.5281C8.12101 14.6748 8.33621 14.7557 8.55898 14.7557C8.78176 14.7557 8.99696 14.6748 9.16461 14.5281C9.79869 13.9734 10.4102 13.4531 10.9495 12.9874C12.3418 11.8771 13.6422 10.6564 14.8381 9.337C15.8033 8.29644 16.3557 6.93953 16.3919 5.52071C16.4129 4.28971 15.9695 3.09596 15.1498 2.1773L15.1486 2.18323Z" fill="#F2F2F2"/>
</svg>
