<svg width="12" height="11" viewBox="0 0 12 11" fill="none" xmlns="http://www.w3.org/2000/svg">
<path d="M6.52951 0.923486C6.40636 0.67538 6.13501 0.51593 5.83594 0.51593C5.53687 0.51593 5.26552 0.67538 5.14236 0.923486L3.83664 3.55391L0.685183 3.87158C0.387934 3.90155 0.137508 4.08722 0.0450917 4.34615C-0.0473258 4.6051 0.0353967 4.88931 0.256532 5.07261L2.60101 7.01597L1.95902 9.84271C1.89847 10.1093 2.01505 10.3836 2.257 10.5436C2.49895 10.7036 2.82143 10.7198 3.08125 10.585L5.83594 9.15563L8.59062 10.585C8.85046 10.7198 9.17294 10.7036 9.4149 10.5436C9.65685 10.3836 9.77338 10.1093 9.71287 9.84271L9.07088 7.01597L11.4153 5.07261C11.6365 4.88931 11.7192 4.6051 11.6268 4.34615C11.5344 4.08722 11.2839 3.90155 10.9867 3.87158L7.83522 3.55391L6.52951 0.923486Z" fill="#E8C500"/>
</svg>
